<svg data-v-1084b650="" xmlns="http://www.w3.org/2000/svg" viewBox="0 0 300 300"><!----> <!----> <rect data-v-1084b650="" fill="#ffffff" x="0" y="0" width="300px" height="300px" class="logo-background-square"></rect> <!----> <linearGradient data-v-1084b650="" gradientTransform="rotate(25)" id="11f4e17d-1097-00ea-b61f-dedb2a8eae6e" x1="0%" y1="0%" x2="100%" y2="0%"><stop data-v-1084b650="" offset="0%" style="stop-color: rgb(81, 6, 255); stop-opacity: 1;"></stop> <stop data-v-1084b650="" offset="100%" style="stop-color: rgb(97, 203, 242); stop-opacity: 1;"></stop></linearGradient> <g data-v-1084b650="" id="a68ec2d4-fdf8-6db0-f2e2-f8d3beb082c4" fill="url(#11f4e17d-1097-00ea-b61f-dedb2a8eae6e)" stroke="none" transform="matrix(0.7499999999999998,0,0,0.7499999999999998,37.09667158126834,37.72499442100528)"><svg xmlns="http://www.w3.org/2000/svg" viewBox="0 0 100 100"><path d="M10.9 49.2c.5.7.4 1.2 0 1.8-2.1 3.1-4.1 6.3-6.1 9.4-1.9 3.1-.7 6.6 2.7 7.9 3.5 1.3 7 2.7 10.5 4 .7.3 1 .6 1 1.4.2 3.5.6 7.1.5 10.6 0 3.6 3.1 6.8 7.4 5.4 3.4-1.1 6.9-1.9 10.4-2.9.7-.2 1.1-.1 1.6.5 2.3 2.9 4.6 5.7 6.9 8.6 2.6 3.1 6.2 3.1 8.8 0 2.3-2.9 4.6-5.7 6.9-8.6.4-.6.8-.7 1.5-.5 3.6 1 7.2 1.9 10.8 2.9 3.7 1 6.8-1.3 7-5l.6-11.1c0-.9.4-1.2 1.1-1.5l10.2-3.9c3.7-1.4 4.8-5 2.7-8.3-2-3.1-4-6.2-6-9.2-.5-.7-.4-1.2 0-1.8 2-3 3.9-6 5.9-9 2.3-3.6 1.1-7.1-2.9-8.5-3.4-1.2-6.7-2.5-10.1-3.8-.7-.3-1-.7-1-1.4-.2-3.7-.4-7.3-.6-11-.2-3.9-3.3-6.1-7-5.1-3.5.9-7.1 1.9-10.6 2.9-.8.2-1.2.1-1.7-.6-2.3-2.8-4.6-5.6-6.9-8.5-2.5-3.1-6.2-3.1-8.8 0-2.3 2.8-4.5 5.6-6.7 8.4-.6.8-1.1.9-2.1.7-3.5-1-6.9-1.9-9.4-2.6-4.8-1.2-7.7.8-7.9 4.8-.3 3.7-.4 7.4-.6 11.1 0 .8-.3 1.1-1 1.4-3.5 1.3-6.9 2.6-10.4 4C4 33.1 2.9 36.6 5 39.9c1.8 3.1 3.8 6.2 5.9 9.3zM50 25.4c13.6 0 24.6 11 24.6 24.6 0 13.6-11 24.6-24.6 24.6-13.6 0-24.6-11-24.6-24.6 0-13.6 11-24.6 24.6-24.6zM36.2 50c0-7.6 6.2-13.8 13.8-13.8.6 0 1.2.1 1.8.1-1.3 1.5-2.1 3.4-2.1 5.6 0 4.6 3.8 8.4 8.4 8.4 2.2 0 4.1-.8 5.6-2.1.1.6.1 1.2.1 1.8 0 7.6-6.2 13.8-13.8 13.8-7.6 0-13.8-6.2-13.8-13.8z"></path></svg></g></svg>